<?xml version="1.0" encoding="UTF-8"?>
<svg width="83px" height="53px" viewBox="0 0 83 53" version="1.1" xmlns="http://www.w3.org/2000/svg" xmlns:xlink="http://www.w3.org/1999/xlink">
    <!-- Generator: Sketch 57.1 (83088) - https://sketch.com -->
    <title>Slice</title>
    <desc>Created with Sketch.</desc>
    <g id="Page-1" stroke="none" stroke-width="1" fill="none" fill-rule="evenodd">
        <path d="M46.1280616,46.5072431 C47.4759929,47.9292725 49.3698074,49.3884405 51.8714554,49.9565941 C55.5498265,50.7919953 58.939932,51.212727 60.7037475,50.4587934 C62.5205138,49.6822263 64.0522727,48.409973 66.0260327,46.6183546 C67.2717305,45.4876117 69.2724567,44.6162015 71.3463921,42.473224 C72.8740482,40.8947115 74.5197988,37.2222313 75.7984177,35.8467487 C79.0060211,32.3961484 80.9231216,31.8793041 80.3587763,30.5357991 C80.0425976,29.7830904 78.3155639,29.1893879 76.0305244,30.2091364 C74.6025591,30.8463969 73.00336,32.3070774 71.178981,33.6950979 C69.8255395,34.7248206 67.7872496,35.8859472 67.0870832,35.3408194 C66.4710988,34.8612331 66.1746467,34.215329 66.6388301,30.9387798 C67.1856453,27.0789553 68.687919,22.8080286 69.6903061,19.4163635 C71.8097728,12.2449609 73.439803,7.32712741 71.3365573,6.75692571 C70.9052895,6.64000657 70.1406272,6.80391204 69.6786502,7.35942346 C66.8220706,10.794362 63.8265405,25.0630444 61.7148318,23.5730343 C60.7388276,22.884371 61.8764828,19.2637492 62.853765,15.3282599 C64.3329173,9.37175305 66.01322,2.44337999 63.9453191,1.88276046 C60.5111474,0.951737236 58.0430293,21.3397277 55.9884963,22.2015426 C54.7454883,22.7229471 55.2474282,17.4662403 55.6642433,13.3791402 C56.2791635,7.34951095 57.5505244,1.73553471 55.1352772,1.97314758 C53.2424007,2.15936944 52.6828506,5.78606716 52.0915097,9.76813425 C51.2328988,15.5499875 51.0270248,22.5837966 49.7591401,23.0868166 C48.4912555,23.5898366 48.2806408,20.658167 48.2630518,17.1782182 C48.239476,12.513787 49.6896771,7.0378071 47.3416026,7.79661655 C45.4722051,8.40073558 44.713731,15.2927747 43.9806613,22.1932239 C43.5576115,26.1754291 42.9034057,30.7498546 42.6660413,32.6024494 C42.0173667,37.6652597 42.79816,42.9942911 46.1280616,46.5072431 Z" id="Path-3" stroke="#CBB2F7" fill="#CBB2F7" transform="translate(61.456863, 26.351827) rotate(-6.000000) translate(-61.456863, -26.351827) "></path>
        <path d="M6.12806157,46.5072431 C7.47599294,47.9292725 9.36980742,49.3884405 11.8714554,49.9565941 C15.5498265,50.7919953 18.939932,51.212727 20.7037475,50.4587934 C22.5205138,49.6822263 24.0522727,48.409973 26.0260327,46.6183546 C27.2717305,45.4876117 29.2724567,44.6162015 31.3463921,42.473224 C32.8740482,40.8947115 34.5197988,37.2222313 35.7984177,35.8467487 C39.0060211,32.3961484 40.9231216,31.8793041 40.3587763,30.5357991 C40.0425976,29.7830904 38.3155639,29.1893879 36.0305244,30.2091364 C34.6025591,30.8463969 33.00336,32.3070774 31.178981,33.6950979 C29.8255395,34.7248206 27.7872496,35.8859472 27.0870832,35.3408194 C26.4710988,34.8612331 26.1746467,34.215329 26.6388301,30.9387798 C27.1856453,27.0789553 28.687919,22.8080286 29.6903061,19.4163635 C31.8097728,12.2449609 33.439803,7.32712741 31.3365573,6.75692571 C30.9052895,6.64000657 30.1406272,6.80391204 29.6786502,7.35942346 C26.8220706,10.794362 23.8265405,25.0630444 21.7148318,23.5730343 C20.7388276,22.884371 21.8764828,19.2637492 22.853765,15.3282599 C24.3329173,9.37175305 26.01322,2.44337999 23.9453191,1.88276046 C20.5111474,0.951737236 18.0430293,21.3397277 15.9884963,22.2015426 C14.7454883,22.7229471 15.2474282,17.4662403 15.6642433,13.3791402 C16.2791635,7.34951095 17.5505244,1.73553471 15.1352772,1.97314758 C13.2424007,2.15936944 12.6828506,5.78606716 12.0915097,9.76813425 C11.2328988,15.5499875 11.0270248,22.5837966 9.75914014,23.0868166 C8.49125547,23.5898366 8.28064083,20.658167 8.26305183,17.1782182 C8.23947601,12.513787 9.68967715,7.0378071 7.34160263,7.79661655 C5.47220509,8.40073558 4.71373105,15.2927747 3.98066133,22.1932239 C3.55761147,26.1754291 2.90340569,30.7498546 2.66604126,32.6024494 C2.01736674,37.6652597 2.79815998,42.9942911 6.12806157,46.5072431 Z" id="Path-3-Copy" stroke="#CBB2F7" fill="#CBB2F7" transform="translate(21.456863, 26.351827) scale(-1, 1) rotate(-6.000000) translate(-21.456863, -26.351827) "></path>
    </g>
</svg>