<?xml version="1.0" encoding="UTF-8"?>
<svg width="368px" height="340px" viewBox="0 0 368 340" version="1.1" xmlns="http://www.w3.org/2000/svg" xmlns:xlink="http://www.w3.org/1999/xlink">
    <!-- Generator: Sketch 57.1 (83088) - https://sketch.com -->
    <title>increase</title>
    <desc>Created with Sketch.</desc>
    <g id="Page-1" stroke="none" stroke-width="1" fill="none" fill-rule="evenodd">
        <g id="iPhone-XR" transform="translate(-20.000000, -258.000000)">
            <g id="Group" transform="translate(20.000000, 256.000000)">
                <text id="conference-2022" font-family="Flegrei-Regular, Flegrei" font-size="30" font-weight="normal" line-spacing="60" letter-spacing="1.05" fill="#612BFF">
                    <tspan x="0" y="39.0352094">conference </tspan>
                    <tspan x="0" y="99.0352094" font-size="50" letter-spacing="1.4">2022</tspan>
                </text>
                <g id="Group-10" transform="translate(187.034600, 173.500000) rotate(-1.000000) translate(-187.034600, -173.500000) translate(3.034600, 4.000000)" fill="#FF41F0">
                    <path d="M0.0696573209,333.018062 L0.0696573209,275.002774 C5.28975179,275.002774 7.88643433,274.79624 13.0562146,274.018062 C13.1081011,293.770333 12.9893911,313.265017 13.0412776,333.018062 L0.0696573209,333.018062 Z" id="Fill-1"></path>
                    <path d="M28.0592107,333.982852 C27.9484727,317.761455 28.2607698,285.135355 28.1500318,268.913958 C29.3649628,268.473394 29.97203,268.242885 31.1837744,267.765346 C45.5781181,270.881547 52.605598,276.448383 66.3785343,297.194999 C66.5561931,272.243361 66.7171217,254.934715 66.627894,247.764541 C69.1860209,245.915748 70.4630927,244.957522 73.0132529,242.982852 C73.1757748,255.811122 72.3711319,321.155369 72.5328572,333.982852 L69.6799601,333.982852 C55.7030746,326.842574 48.8468801,310.028776 34.6309918,295.551539 C34.5553076,313.751539 34.4772333,325.489414 34.5465442,333.982852 L28.0592107,333.982852 Z" id="Fill-3"></path>
                    <path d="M123.056129,314.787018 C122.38034,335.818539 118.389434,336 110.721981,336 L98.3766622,336 C95.0152696,336 92.0927011,335.508803 89.6352862,332.985552 C87.1778713,330.463866 85.959536,326.467807 86.0010248,320.127612 C86.1510229,297.193876 86.4023494,274.069292 86.5531453,251.135557 C86.5938363,244.887656 87.8305224,239.836462 90.2711822,235.113775 C92.7102463,230.391871 95.6751015,227.200655 99.1848964,223.888204 C104.208235,219.147528 106.71432,216.682157 111.716117,211.60828 C119.552717,203.65918 123.739099,199.321316 124,219.860858 C121.529021,222.113481 120.292335,223.228842 117.817367,225.431407 C117.404873,215.841334 115.347985,215.134261 111.708138,218.639123 C109.194075,221.059911 107.935847,222.253488 105.416199,224.602317 C103.716752,226.186974 102.249484,228.383282 101.012798,231.493153 C99.7737185,234.606935 99.1450033,237.773122 99.1186738,241.354636 C98.9287827,266.895314 98.6327759,292.99289 98.4428847,318.53435 C98.4173531,322.014965 99.007771,324.600789 100.206958,326.585131 C101.406144,328.569473 102.847083,329.370405 104.523391,329.287496 C107.009529,329.164697 108.250204,329.101342 110.729959,328.969157 C114.369806,328.775963 116.414726,325.885097 116.942113,315.781926 C119.390751,315.391628 120.613076,315.192177 123.056129,314.787018" id="Fill-4"></path>
                    <path d="M148.057354,239.969371 C150.487717,238.334229 151.70171,237.511574 154.129696,235.860792 C155.836576,234.700318 157.314446,231.162592 158.56806,225.179582 C159.82009,219.202828 160.48731,212.611429 160.561006,205.905859 C160.669568,196.084839 160.720283,191.417137 160.80428,183.253155 C160.862919,177.516471 160.303468,173.873959 159.129889,172.031589 C157.958687,170.192347 156.506174,170.570049 154.788992,172.470286 C152.345158,175.174409 151.122448,176.521779 148.677029,179.200097 C148.559751,194.815668 148.383833,210.441405 148.057354,239.969371 L148.057354,239.969371 Z M135.00376,335 C134.913424,317.559263 136.48163,201.469626 136.391294,184.028889 C146.264099,172.901163 151.185842,167.110522 161.025366,155.46199 C164.363054,151.510591 167.245891,148.729832 169.617615,150.591752 C171.989339,152.452108 173.118542,158.97 172.99017,171.018129 C172.939455,175.802348 172.91172,178.370405 172.852288,183.738771 C172.72867,194.875881 171.662068,207.715385 169.677047,220.651074 C167.691233,233.589891 164.51203,241.282333 160.131512,243.935627 C162.555536,242.467049 163.767152,241.731196 166.189591,240.255579 C167.842586,239.249158 169.234874,241.154087 170.359324,246.125201 C171.484565,251.103353 171.998056,257.747146 171.906927,265.620227 C171.447321,305.437626 171.208009,325.965662 171.211179,335 L159.209131,335 C159.196452,327.986326 159.34622,314.13649 159.672699,284.556131 C159.747187,277.854471 159.222602,271.975465 158.089437,267.41646 C156.957063,262.862147 155.539418,261.04089 153.837292,261.899516 C151.415645,263.121767 150.204822,263.730156 147.780798,264.939114 C147.34655,304.270896 147.090597,326.485686 147.119124,335 L135.00376,335 Z" id="Fill-5"></path>
                    <path d="M184,335 C184.022187,310.1375 186.233756,151.60327 186.255151,126.73999 C198.534865,112.158911 204.674326,104.860179 217,91 C216.989699,94.2541968 216.964342,97.2267428 216.88748,104.937418 C209.504754,112.775265 205.821712,116.802636 198.461173,124.928375 C198.259113,146.122395 198.001585,167.119805 197.521395,206.82397 C202.406498,203.508918 204.850238,201.863485 209.744849,198.620991 C209.571315,212.811193 209.48019,220.140352 209.305864,234.330554 C204.42393,236.725755 201.986529,237.94286 197.114105,240.395796 C196.633914,280.099181 196.376387,301.096591 196.174326,322.29061 C203.420761,321.783483 207.046751,321.53382 214.318542,321.061802 C214.240887,328.773257 214.216323,331.745023 214.206022,335 L184,335 Z" id="Fill-6"></path>
                    <path d="M240.458679,179.68531 C245.542218,176.751484 248.088476,175.324133 253.196499,172.575973 C253.636381,138.894559 253.859179,121.845468 254.178277,96.0223199 C254.290084,86.9490042 253.743291,80.7241237 252.54606,76.807917 C251.349645,72.8971942 249.84719,72.2548078 248.05828,73.8889761 C246.319969,75.4769238 244.804456,78.8698206 243.499498,84.8612485 C242.192909,90.8589437 241.493504,97.8452871 241.388226,106.52377 C241.087082,131.225093 240.87571,147.51037 240.458679,179.68531 L240.458679,179.68531 Z M225.982548,335.999848 C226.073952,311.84612 227.657202,200.190753 228.651222,117.617469 C228.847088,101.329058 230.216518,89.7614031 232.794604,80.8573013 C235.373507,71.9555498 238.364544,67.7933562 241.837902,64.3440548 C246.954085,59.2621519 249.516666,56.7928814 254.6557,52.0447061 C258.141299,48.8233735 261.153556,47.186855 263.604329,52.1379304 C266.055103,57.0890058 267.182148,67.9453354 266.953638,86.2823325 C265.778442,180.613637 263.927508,309.561732 263.801011,335.999848 L251.175814,335.999848 C251.243551,321.180308 251.752803,283.034309 252.635016,215.468581 C247.539235,217.468596 244.99869,218.510515 239.927392,220.658592 C239.091697,285.201971 238.609377,321.624494 238.548169,335.999848 L225.982548,335.999848 Z" id="Fill-7"></path>
                    <path d="M304.502988,64.3655191 C304.242967,39.9745054 302.263428,34.4025818 298.75194,36.4754746 C296.47857,37.8165747 294.758247,40.815521 293.57165,46.1697792 C292.384249,51.5255977 291.72977,59.313184 291.579231,71.346417 C291.468139,80.2285719 291.96564,89.1731399 293.078979,97.8766375 C298.026619,134.71047 300.415107,159.459578 305.288685,204.47654 C307.536295,225.324053 308.507147,247.780263 308.237466,268.719056 C308.132008,276.894383 308.081292,280.802999 307.98952,288.104544 C307.734329,308.296721 306.317498,321.070329 303.719705,328.580177 C301.121108,336.090806 298.096656,336.999695 294.565847,336.999695 L288.210231,336.999695 C283.981473,336.999695 280.812922,336.020591 278.740806,330.326182 C276.66869,324.634113 275.726015,313.622113 276.016626,290.265596 C278.567728,290.017504 279.845291,289.900479 282.406053,289.681254 C282.373852,292.223024 282.350506,294.133643 282.333601,295.480985 C282.220899,304.65024 282.810172,310.547491 284.086125,314.389794 C285.362883,318.234436 286.7934,319.874339 288.37365,319.850934 C290.61482,319.817387 292.258666,317.834213 293.312435,313.007345 C294.365398,308.185938 294.955476,300.644103 295.105209,288.738817 C295.221937,279.454098 294.728461,270.007885 293.617536,261.097644 C288.695657,221.904599 286.32327,197.396561 281.480282,156.218001 C279.240723,137.516716 278.266651,117.32766 278.519427,97.4834354 C278.616029,89.8581229 278.66272,86.2069604 278.747247,79.3672721 C278.982312,60.4600235 280.373383,47.3985358 282.95588,38.2238198 C285.538377,29.0491037 288.561219,25.8527762 292.112153,23.5208692 C294.674525,21.8372776 295.957723,21.0282487 298.52895,19.4804054 C306.63548,14.6004863 311.068713,11.9783587 310.963256,61.3174226 C308.374319,62.478305 307.082265,63.0883924 304.502988,64.3655191 Z" id="Fill-8" transform="translate(293.465095, 176.999695) rotate(1.000000) translate(-293.465095, -176.999695) "></path>
                    <path d="M320.947643,337.999543 C321.058553,307.181552 325.954607,37.894387 326.066315,7.07639633 C339.072288,2.37969576 350.637549,1.10425752 363.946729,1.10425752 C363.946729,3.70214936 362.914167,7.17906096 362.804055,17.0512064 C354.817749,17.5002247 346.85752,18.0804748 338.98771,20.0885411 C338.648597,50.3276579 338.212937,83.0418515 337.399864,144.594913 C342.648532,143.835337 346.285481,143.572739 351.588407,143.240278 C351.310733,164.222889 351.165666,175.081225 350.88879,196.063054 C345.589055,196.13424 340.954501,196.242731 335.712215,196.654201 C334.899143,258.207263 334.463482,290.921456 334.12437,321.159791 C341.95987,321.414808 356.908739,320.586906 364.880683,321.035924 C364.770571,330.90807 364.737856,334.402434 364.737856,336.999543 L320.947643,337.999543 Z" id="Fill-9" transform="translate(342.914163, 169.551900) rotate(1.000000) translate(-342.914163, -169.551900) "></path>
                </g>
            </g>
        </g>
    </g>
</svg>
