<?xml version="1.0" encoding="UTF-8"?>
<svg width="360px" height="509px" viewBox="0 0 360 509" version="1.1" xmlns="http://www.w3.org/2000/svg" xmlns:xlink="http://www.w3.org/1999/xlink">
    <!-- Generator: Sketch 57.1 (83088) - https://sketch.com -->
    <title>landing</title>
    <desc>Created with Sketch.</desc>
    <defs>
        <path d="M150.680664,475.721191 L222.116211,475.721191 L222.116211,501.636719 L103.415039,501.636719 L103.415039,499.756836 L114.694336,486.463379 C132.329515,464.620822 146.361357,446.090734 156.790283,430.872559 C167.219209,415.654384 174.022526,404.151406 177.200439,396.363281 C180.378352,388.575156 181.967285,380.876666 181.967285,373.267578 C181.967285,362.704374 178.968454,354.222607 172.970703,347.822021 C166.972952,341.421436 159.005909,338.221191 149.069336,338.221191 C141.549767,338.221191 134.142208,340.436745 126.846436,344.86792 C119.550663,349.299094 112.993519,355.542928 107.174805,363.599609 L107.174805,329.493164 C121.766349,317.58718 136.805261,311.634277 152.291992,311.634277 C168.67391,311.634277 182.168648,317.094835 192.776611,328.016113 C203.384575,338.937392 208.688477,352.812579 208.688477,369.64209 C208.688477,377.161659 207.368096,385.195839 204.727295,393.744873 C202.086494,402.293907 197.409213,412.140813 190.695312,423.285889 C183.981412,434.430964 172.567952,449.626531 156.45459,468.873047 L150.680664,475.721191 Z M280.006445,314.05127 L306.861914,314.05127 L306.861914,501.636719 L280.006445,501.636719 L280.006445,314.05127 Z" id="path-1"></path>
    </defs>
    <g id="Page-1" stroke="none" stroke-width="1" fill="none" fill-rule="evenodd">
        <g id="Artboard" transform="translate(-8.000000, -83.000000)" fill-rule="nonzero">
            <g id="Home">
                <g id="landing" transform="translate(7.984375, 84.363281)">
                    <path d="M-22.984375,420.402344 L-9.625,407.277344 L-9.625,414.699219 L1.7421875,414.699219 L1.7421875,421.105469 L-9.625,421.105469 L-9.625,438.722656 C-9.625,442.83726 -7.91928789,444.894531 -4.5078125,444.894531 C-1.95571641,444.894531 0.739569141,444.035165 3.578125,442.316406 L3.578125,448.957031 C0.843736328,450.493497 -2.13800469,451.261719 -5.3671875,451.261719 C-8.62241211,451.261719 -11.3307184,450.311207 -13.4921875,448.410156 C-14.1692742,447.837237 -14.7291645,447.192712 -15.171875,446.476562 C-15.6145855,445.760413 -15.9856756,444.822922 -16.2851562,443.664062 C-16.5846369,442.505203 -16.734375,440.298193 -16.734375,437.042969 L-16.734375,421.105469 L-22.984375,421.105469 L-22.984375,420.402344 Z M8.5390625,396.066406 L15.6484375,396.066406 L15.6484375,419.425781 C18.6172023,415.805971 22.3020613,413.996094 26.703125,413.996094 C29.0989703,413.996094 31.2473863,414.595046 33.1484375,415.792969 C35.0494887,416.990891 36.462235,418.644521 37.3867188,420.753906 C38.3112025,422.863292 38.7734375,426.001281 38.7734375,430.167969 L38.7734375,450.636719 L31.6640625,450.636719 L31.6640625,428.410156 C31.6640625,425.779935 31.0195377,423.664071 29.7304688,422.0625 C28.4413998,420.460929 26.742198,419.660156 24.6328125,419.660156 C23.0703047,419.660156 21.5989652,420.063798 20.21875,420.871094 C18.8385348,421.678389 17.3151125,423.019522 15.6484375,424.894531 L15.6484375,450.636719 L8.5390625,450.636719 L8.5390625,396.066406 Z M79.3203125,433.292969 L54.046875,433.292969 C54.2291676,436.730486 55.3814998,439.464834 57.5039062,441.496094 C59.6263127,443.527354 62.3671707,444.542969 65.7265625,444.542969 C70.4140859,444.542969 74.7369594,443.08465 78.6953125,440.167969 L78.6953125,447.121094 C76.5078016,448.579434 74.3398545,449.621091 72.1914062,450.246094 C70.042958,450.871097 67.523452,451.183594 64.6328125,451.183594 C60.6744594,451.183594 57.4713664,450.363289 55.0234375,448.722656 C52.5755086,447.082023 50.6158928,444.875014 49.1445312,442.101562 C47.6731697,439.328111 46.9375,436.118508 46.9375,432.472656 C46.9375,427.003879 48.4869637,422.557309 51.5859375,419.132812 C54.6849113,415.708316 58.7083086,413.996094 63.65625,413.996094 C68.4218988,413.996094 72.2239441,415.662744 75.0625,418.996094 C77.9010559,422.329444 79.3203125,426.795545 79.3203125,432.394531 L79.3203125,433.292969 Z M54.203125,429.035156 L72.2890625,429.035156 C72.1067699,426.1966 71.2604242,424.009122 69.75,422.472656 C68.2395758,420.93619 66.2083461,420.167969 63.65625,420.167969 C61.1041539,420.167969 59.0143311,420.93619 57.3867188,422.472656 C55.7591064,424.009122 54.6979191,426.1966 54.203125,429.035156 Z" id="the" fill="#CBB2F7" transform="translate(28.167969, 423.664062) scale(-1, -1) rotate(90.000000) translate(-28.167969, -423.664062) "></path>
                    <path d="M-140.859375,266.980469 L-140.859375,275.574219 C-146.58857,278.699234 -153.203088,280.261719 -160.703125,280.261719 C-166.796905,280.261719 -171.966125,279.037773 -176.210938,276.589844 C-180.45575,274.141915 -183.815092,270.769553 -186.289062,266.472656 C-188.763033,262.17576 -190,257.527369 -190,252.527344 C-190,244.584596 -187.167997,237.904975 -181.503906,232.488281 C-175.839815,227.071588 -168.854208,224.363281 -160.546875,224.363281 C-154.81768,224.363281 -148.450556,225.860662 -141.445312,228.855469 L-141.445312,237.253906 C-147.825553,233.608055 -154.06247,231.785156 -160.15625,231.785156 C-166.406281,231.785156 -171.595031,233.757793 -175.722656,237.703125 C-179.850281,241.648457 -181.914062,246.589814 -181.914062,252.527344 C-181.914062,258.516957 -179.882833,263.438783 -175.820312,267.292969 C-171.757792,271.147155 -166.562532,273.074219 -160.234375,273.074219 C-153.619759,273.074219 -147.16149,271.042989 -140.859375,266.980469 Z M-104.453125,224.285156 C-96.0155828,224.285156 -88.9909135,226.9544 -83.3789062,232.292969 C-77.766899,237.631537 -74.9609375,244.324179 -74.9609375,252.371094 C-74.9609375,260.418009 -77.7929404,267.078099 -83.4570312,272.351562 C-89.1211221,277.625026 -96.2629777,280.261719 -104.882812,280.261719 C-113.11202,280.261719 -119.967421,277.625026 -125.449219,272.351562 C-130.931017,267.078099 -133.671875,260.470092 -133.671875,252.527344 C-133.671875,244.376261 -130.911486,237.631537 -125.390625,232.292969 C-119.869764,226.9544 -112.890667,224.285156 -104.453125,224.285156 Z M-104.140625,231.707031 C-110.390656,231.707031 -115.527324,233.660137 -119.550781,237.566406 C-123.574239,241.472676 -125.585938,246.459605 -125.585938,252.527344 C-125.585938,258.41279 -123.567729,263.308574 -119.53125,267.214844 C-115.494771,271.121113 -110.442739,273.074219 -104.375,273.074219 C-98.2812195,273.074219 -93.196635,271.082051 -89.1210938,267.097656 C-85.0455525,263.113261 -83.0078125,258.152373 -83.0078125,252.214844 C-83.0078125,246.433565 -85.0455525,241.570332 -89.1210938,237.625 C-93.196635,233.679668 -98.2030953,231.707031 -104.140625,231.707031 Z M-22.03125,225.066406 L-14.609375,225.066406 L-14.609375,279.636719 L-21.328125,279.636719 L-57.8125,237.644531 L-57.8125,279.636719 L-65.15625,279.636719 L-65.15625,225.066406 L-58.828125,225.066406 L-22.03125,267.410156 L-22.03125,225.066406 Z M-2.8515625,225.066406 L26.25,225.066406 L26.25,232.019531 L4.9609375,232.019531 L4.9609375,247.253906 L26.25,247.253906 L26.25,254.207031 L4.9609375,254.207031 L4.9609375,279.636719 L-2.8515625,279.636719 L-2.8515625,225.066406 Z M34.609375,225.066406 L65.546875,225.066406 L65.546875,232.019531 L42.421875,232.019531 L42.421875,248.660156 L64.765625,248.660156 L64.765625,255.652344 L42.421875,255.652344 L42.421875,272.605469 L66.2890625,272.605469 L66.2890625,279.558594 L34.609375,279.558594 L34.609375,225.066406 Z M74.84375,279.636719 L74.84375,225.066406 L88.515625,225.066406 C94.0364859,225.066406 98.4179525,226.43358 101.660156,229.167969 C104.90236,231.902357 106.523438,235.600237 106.523438,240.261719 C106.523438,243.438818 105.729175,246.186186 104.140625,248.503906 C102.552075,250.821626 100.273452,252.55338 97.3046875,253.699219 C99.0494879,254.845058 100.7552,256.407542 102.421875,258.386719 C104.08855,260.365895 106.432277,263.816382 109.453125,268.738281 C111.354176,271.837255 112.877598,274.167961 114.023438,275.730469 L116.914062,279.636719 L107.617188,279.636719 L105.234375,276.042969 C105.15625,275.91276 105.000001,275.691408 104.765625,275.378906 L103.242188,273.230469 L100.820312,269.246094 L98.203125,264.988281 C96.5885336,262.748687 95.1106838,260.96485 93.7695312,259.636719 C92.4283787,258.308587 91.2174533,257.351565 90.1367188,256.765625 C89.0559842,256.179685 87.2395961,255.886719 84.6875,255.886719 L82.65625,255.886719 L82.65625,279.636719 L74.84375,279.636719 Z M85,231.707031 L82.65625,231.707031 L82.65625,248.933594 L85.625,248.933594 C89.5833531,248.933594 92.2981697,248.595055 93.7695312,247.917969 C95.2408928,247.240882 96.3867146,246.218757 97.2070312,244.851562 C98.0273479,243.484368 98.4375,241.928394 98.4375,240.183594 C98.4375,238.464835 97.9817754,236.908861 97.0703125,235.515625 C96.1588496,234.122389 94.8763104,233.139326 93.2226562,232.566406 C91.5690021,231.993487 88.8281441,231.707031 85,231.707031 Z M122.929688,225.066406 L153.867188,225.066406 L153.867188,232.019531 L130.742188,232.019531 L130.742188,248.660156 L153.085938,248.660156 L153.085938,255.652344 L130.742188,255.652344 L130.742188,272.605469 L154.609375,272.605469 L154.609375,279.558594 L122.929688,279.558594 L122.929688,225.066406 Z M206.289062,225.066406 L213.710938,225.066406 L213.710938,279.636719 L206.992188,279.636719 L170.507812,237.644531 L170.507812,279.636719 L163.164062,279.636719 L163.164062,225.066406 L169.492188,225.066406 L206.289062,267.410156 L206.289062,225.066406 Z M272.421875,266.980469 L272.421875,275.574219 C266.69268,278.699234 260.078163,280.261719 252.578125,280.261719 C246.484345,280.261719 241.315125,279.037773 237.070312,276.589844 C232.8255,274.141915 229.466158,270.769553 226.992188,266.472656 C224.518217,262.17576 223.28125,257.527369 223.28125,252.527344 C223.28125,244.584596 226.113253,237.904975 231.777344,232.488281 C237.441435,227.071588 244.427042,224.363281 252.734375,224.363281 C258.46357,224.363281 264.830694,225.860662 271.835938,228.855469 L271.835938,237.253906 C265.455697,233.608055 259.21878,231.785156 253.125,231.785156 C246.874969,231.785156 241.686219,233.757793 237.558594,237.703125 C233.430969,241.648457 231.367188,246.589814 231.367188,252.527344 C231.367188,258.516957 233.398417,263.438783 237.460938,267.292969 C241.523458,271.147155 246.718718,273.074219 253.046875,273.074219 C259.661491,273.074219 266.11976,271.042989 272.421875,266.980469 Z M282.03125,225.066406 L312.96875,225.066406 L312.96875,232.019531 L289.84375,232.019531 L289.84375,248.660156 L312.1875,248.660156 L312.1875,255.652344 L289.84375,255.652344 L289.84375,272.605469 L313.710938,272.605469 L313.710938,279.558594 L282.03125,279.558594 L282.03125,225.066406 Z" id="CONFERENCE" stroke="#F6FFDE" stroke-width="3" fill="#3C3C67" transform="translate(61.855469, 252.273438) scale(-1, -1) rotate(90.000000) translate(-61.855469, -252.273438) "></path>
                    <path d="M150.680664,246.721191 L222.116211,246.721191 L222.116211,272.636719 L103.415039,272.636719 L103.415039,270.756836 L114.694336,257.463379 C132.329515,235.620822 146.361357,217.090734 156.790283,201.872559 C167.219209,186.654384 174.022526,175.151406 177.200439,167.363281 C180.378352,159.575156 181.967285,151.876666 181.967285,144.267578 C181.967285,133.704374 178.968454,125.222607 172.970703,118.822021 C166.972952,112.421436 159.005909,109.221191 149.069336,109.221191 C141.549767,109.221191 134.142208,111.436745 126.846436,115.86792 C119.550663,120.299094 112.993519,126.542928 107.174805,134.599609 L107.174805,100.493164 C121.766349,88.5871801 136.805261,82.6342773 152.291992,82.6342773 C168.67391,82.6342773 182.168648,88.0948347 192.776611,99.0161133 C203.384575,109.937392 208.688477,123.812579 208.688477,140.64209 C208.688477,148.161659 207.368096,156.195839 204.727295,164.744873 C202.086494,173.293907 197.409213,183.140813 190.695312,194.285889 C183.981412,205.430964 172.567952,220.626531 156.45459,239.873047 L150.680664,246.721191 Z M294.239844,82.6342773 C311.42743,82.6342773 325.638306,91.6531487 336.8729,109.691162 C348.107494,127.729175 353.724707,150.623234 353.724707,178.374023 C353.724707,206.840963 348.107494,229.981193 336.8729,247.79541 C325.638306,265.609627 311.06936,274.516602 293.165625,274.516602 C274.993334,274.516602 260.402008,265.788661 249.391211,248.33252 C238.380414,230.876378 232.875098,207.736147 232.875098,178.911133 C232.875098,150.444194 238.559448,127.281583 249.92832,109.422607 C261.297192,91.5636314 276.067552,82.6342773 294.239844,82.6342773 Z M294.508398,108.146973 L293.165625,108.146973 C282.870977,108.146973 274.70252,114.480324 268.66001,127.147217 C262.617499,139.81411 259.596289,156.979058 259.596289,178.642578 C259.596289,200.84321 262.550361,218.254331 268.458594,230.876465 C274.366826,243.498598 282.512904,249.80957 292.89707,249.80957 C303.281237,249.80957 311.472073,243.498598 317.469824,230.876465 C323.467576,218.254331 326.466406,201.111762 326.466406,179.448242 C326.466406,157.695204 323.579472,140.3736 317.805518,127.48291 C312.031563,114.592221 304.265934,108.146973 294.508398,108.146973 Z" id="2021" stroke="#7D86F1" stroke-width="11" fill="#7D86F1"></path>
                    <g id="21" fill="#F5DAFF">
                        <use xlink:href="#path-1"></use>
                        <use stroke="#F5DAFF" stroke-width="11" xlink:href="#path-1"></use>
                    </g>
                    <path d="M127.300781,36.2734375 L127.691406,36 L130.054688,38.9882812 C127.971344,40.3294338 126.242845,41.7942629 124.869141,43.3828125 C123.495436,44.9713621 122.437504,46.839833 121.695312,48.9882812 C123.140632,48.24609 124.57942,47.875 126.011719,47.875 C128.160167,47.875 129.970045,48.6367111 131.441406,50.1601562 C132.912768,51.6836014 133.648438,53.5520723 133.648438,55.765625 C133.648438,58.0442822 132.847664,59.9778566 131.246094,61.5664062 C129.644523,63.1549559 127.697928,63.9492188 125.40625,63.9492188 C122.841133,63.9492188 120.767586,63.0475351 119.185547,61.2441406 C117.603508,59.4407462 116.8125,57.0807438 116.8125,54.1640625 C116.8125,51.9765516 117.219397,49.798839 118.033203,47.6308594 C118.847009,45.4628798 120.018873,43.4316501 121.548828,41.5371094 C123.078784,39.6425687 124.996082,37.8880289 127.300781,36.2734375 Z M120.855469,53.03125 C120.751302,53.6432322 120.699219,54.3268191 120.699219,55.0820312 C120.699219,56.6184973 121.145178,57.8815055 122.037109,58.8710938 C122.929041,59.860682 124.071608,60.3554688 125.464844,60.3554688 C126.71485,60.3554688 127.746741,59.9322959 128.560547,59.0859375 C129.374353,58.2395791 129.78125,57.1718814 129.78125,55.8828125 C129.78125,54.5677018 129.348312,53.5032593 128.482422,52.6894531 C127.616532,51.875647 126.473965,51.46875 125.054688,51.46875 C124.325517,51.46875 123.664717,51.579426 123.072266,51.8007812 C122.479815,52.0221365 121.74089,52.4322887 120.855469,53.03125 Z M154.803125,45.6679688 L154.803125,47.953125 C156.391675,46.1953037 158.195042,45.3164062 160.213281,45.3164062 C161.333079,45.3164062 162.374735,45.6061169 163.338281,46.1855469 C164.301828,46.7649769 165.034242,47.5592397 165.535547,48.5683594 C166.036851,49.577479 166.2875,51.1757703 166.2875,53.3632812 L166.2875,63.6367188 L162.732812,63.6367188 L162.732812,53.4023438 C162.732812,51.5663971 162.452867,50.2545612 161.892969,49.4667969 C161.33307,48.6790325 160.395579,48.2851562 159.080469,48.2851562 C157.400773,48.2851562 155.975006,49.1249916 154.803125,50.8046875 L154.803125,63.6367188 L151.170312,63.6367188 L151.170312,45.6679688 L154.803125,45.6679688 Z M181.142188,45.6289062 C183.876576,45.6289062 186.148689,46.5110589 187.958594,48.2753906 C189.768499,50.0397224 190.673438,52.2564971 190.673438,54.9257812 C190.673438,57.51694 189.755478,59.6686112 187.919531,61.3808594 C186.083585,63.0931075 183.77241,63.9492188 180.985938,63.9492188 C178.290612,63.9492188 176.03803,63.0800868 174.228125,61.3417969 C172.41822,59.6035069 171.513281,57.4323047 171.513281,54.828125 C171.513281,52.1979035 172.427986,50.0071702 174.257422,48.2558594 C176.086858,46.5045485 178.381757,45.6289062 181.142188,45.6289062 Z M180.946875,48.8320312 C179.241137,48.8320312 177.841412,49.3919215 176.747656,50.5117188 C175.653901,51.631516 175.107031,53.057283 175.107031,54.7890625 C175.107031,56.5078211 175.666921,57.9108019 176.786719,58.9980469 C177.906516,60.0852919 179.345304,60.6289062 181.103125,60.6289062 C182.847925,60.6289062 184.276948,60.0787815 185.390234,58.9785156 C186.503521,57.8782497 187.060156,56.4687586 187.060156,54.75 C187.060156,53.0442623 186.480735,51.631516 185.321875,50.5117188 C184.163015,49.3919215 182.704696,48.8320312 180.946875,48.8320312 Z M206.524219,45.6679688 L210.371875,45.6679688 L202.442187,63.9492188 L201.250781,63.9492188 L193.125781,45.6679688 L197.0125,45.6679688 L201.85625,56.7226562 L206.524219,45.6679688 Z M228.859375,54.9648438 L216.222656,54.9648438 C216.313803,56.6836023 216.889969,58.0507762 217.951172,59.0664062 C219.012375,60.0820363 220.382804,60.5898438 222.0625,60.5898438 C224.406262,60.5898438 226.567698,59.8606844 228.546875,58.4023438 L228.546875,61.8789062 C227.45312,62.6080766 226.369146,63.1289047 225.294922,63.4414062 C224.220698,63.7539078 222.960945,63.9101562 221.515625,63.9101562 C219.536448,63.9101562 217.934902,63.5000041 216.710938,62.6796875 C215.486973,61.8593709 214.507165,60.7558663 213.771484,59.3691406 C213.035804,57.9824149 212.667969,56.3776133 212.667969,54.5546875 C212.667969,51.8202988 213.442701,49.5970138 214.992188,47.8847656 C216.541674,46.1725175 218.553373,45.3164062 221.027344,45.3164062 C223.410168,45.3164062 225.311191,46.1497313 226.730469,47.8164062 C228.149747,49.4830812 228.859375,51.7161318 228.859375,54.515625 L228.859375,54.9648438 Z M216.300781,52.8359375 L225.34375,52.8359375 C225.252604,51.4166596 224.829431,50.3229205 224.074219,49.5546875 C223.319007,48.7864545 222.303392,48.4023438 221.027344,48.4023438 C219.751296,48.4023438 218.706384,48.7864545 217.892578,49.5546875 C217.078772,50.3229205 216.548178,51.4166596 216.300781,52.8359375 Z M248.733594,50.5898438 L248.733594,63.6367188 L245.159375,63.6367188 L245.159375,53.6367188 C245.159375,51.6445213 244.892451,50.2545612 244.358594,49.4667969 C243.824737,48.6790325 242.893757,48.2851562 241.565625,48.2851562 C240.823434,48.2851562 240.143102,48.4544254 239.524609,48.7929688 C238.906117,49.1315121 238.199744,49.7304645 237.405469,50.5898438 L237.405469,63.6367188 L233.850781,63.6367188 L233.850781,45.6679688 L237.405469,45.6679688 L237.405469,48.03125 C239.215374,46.2213451 240.986189,45.3164062 242.717969,45.3164062 C244.996626,45.3164062 246.760931,46.3971246 248.010938,48.5585938 C249.911989,46.3710828 251.897646,45.2773438 253.967969,45.2773438 C255.712769,45.2773438 257.148302,45.9153582 258.274609,47.1914062 C259.400917,48.4674543 259.964063,50.4140494 259.964063,53.03125 L259.964063,63.6367188 L256.409375,63.6367188 L256.409375,52.9921875 C256.409375,51.4947842 256.103388,50.3489623 255.491406,49.5546875 C254.879424,48.7604127 254.000527,48.3632812 252.854688,48.3632812 C251.383326,48.3632812 250.009642,49.1054613 248.733594,50.5898438 Z M265.990625,36.3515625 L269.545313,36.3515625 L269.545313,46.9570312 C271.081779,45.837234 272.722387,45.2773438 274.467188,45.2773438 C276.745845,45.2773438 278.607805,46.1367102 280.053125,47.8554688 C281.498445,49.5742273 282.221094,51.7812365 282.221094,54.4765625 C282.221094,57.367202 281.358472,59.6686112 279.633203,61.3808594 C277.907934,63.0931075 275.600014,63.9492188 272.709375,63.9492188 C271.550515,63.9492188 270.329824,63.8255221 269.047266,63.578125 C267.764707,63.3307279 266.745837,63.0182311 265.990625,62.640625 L265.990625,36.3515625 Z M269.545313,50.3554688 L269.545313,60.0820312 C270.756256,60.4466164 271.999733,60.6289062 273.275781,60.6289062 C274.85131,60.6289062 276.137104,60.069016 277.133203,58.9492188 C278.129302,57.8294215 278.627344,56.3906338 278.627344,54.6328125 C278.627344,52.8489494 278.161854,51.397141 277.230859,50.2773438 C276.299865,49.1575465 275.085685,48.5976562 273.588281,48.5976562 C272.26015,48.5976562 270.912507,49.1835879 269.545313,50.3554688 Z M302.759375,54.9648438 L290.122656,54.9648438 C290.213803,56.6836023 290.789969,58.0507762 291.851172,59.0664062 C292.912375,60.0820363 294.282804,60.5898438 295.9625,60.5898438 C298.306262,60.5898438 300.467698,59.8606844 302.446875,58.4023438 L302.446875,61.8789062 C301.35312,62.6080766 300.269146,63.1289047 299.194922,63.4414062 C298.120698,63.7539078 296.860945,63.9101562 295.415625,63.9101562 C293.436448,63.9101562 291.834902,63.5000041 290.610937,62.6796875 C289.386973,61.8593709 288.407165,60.7558663 287.671484,59.3691406 C286.935804,57.9824149 286.567969,56.3776133 286.567969,54.5546875 C286.567969,51.8202988 287.342701,49.5970138 288.892187,47.8847656 C290.441674,46.1725175 292.453373,45.3164062 294.927344,45.3164062 C297.310168,45.3164062 299.211191,46.1497313 300.630469,47.8164062 C302.049747,49.4830812 302.759375,51.7161318 302.759375,54.515625 L302.759375,54.9648438 Z M290.200781,52.8359375 L299.24375,52.8359375 C299.152604,51.4166596 298.729431,50.3229205 297.974219,49.5546875 C297.219007,48.7864545 296.203392,48.4023438 294.927344,48.4023438 C293.651296,48.4023438 292.606384,48.7864545 291.792578,49.5546875 C290.978772,50.3229205 290.448178,51.4166596 290.200781,52.8359375 Z M311.715625,45.6679688 L311.715625,49.7890625 L311.910938,49.4765625 C313.629696,46.7031111 315.348429,45.3164062 317.067188,45.3164062 C318.40834,45.3164062 319.808066,45.9934828 321.266406,47.3476562 L319.391406,50.4726562 C318.154421,49.3007754 317.008599,48.7148438 315.953906,48.7148438 C314.808067,48.7148438 313.815239,49.2617133 312.975391,50.3554688 C312.135543,51.4492242 311.715625,52.7447842 311.715625,54.2421875 L311.715625,63.6367188 L308.141406,63.6367188 L308.141406,45.6679688 L311.715625,45.6679688 Z" id="6november" fill="#7D86F1"></path>
                </g>
            </g>
        </g>
    </g>
</svg>