<?xml version="1.0" encoding="UTF-8"?>
<svg width="358px" height="510px" viewBox="0 0 358 510" version="1.1" xmlns="http://www.w3.org/2000/svg" xmlns:xlink="http://www.w3.org/1999/xlink">
    <!-- Generator: Sketch 57.1 (83088) - https://sketch.com -->
    <title>Rectangle Copy 3</title>
    <desc>Created with Sketch.</desc>
    <g id="Page-1" stroke="none" stroke-width="1" fill="none" fill-rule="evenodd">
        <g id="Artboard" transform="translate(-8.000000, -661.000000)" fill="#F5DAFF">
            <g id="Schedule" transform="translate(0.000000, 630.000000)">
                <path d="M156.214352,47.847738 C230.830025,24.793247 288.907805,15.995794 340.615108,84.3008755 C385.909268,144.134227 359.105374,229.895388 347.507304,324.805692 C343.049628,361.284113 361.499239,421.247975 347.507304,469.046185 C335.760523,509.174666 283.281629,537.542556 260.173013,540.308916 C224.708244,544.554446 190.316223,528.211773 149.383381,519.290839 C125.120538,514.002978 82.93341,518.407213 55.3540689,495.912499 C23.7694212,470.15091 8.25209977,416.182143 8.01089379,392.636595 C7.34093453,327.237892 37.8070989,243.50387 34.5954058,195.526211 C31.7877697,153.584529 36.8730937,98.557376 65.2415727,73.278902 C93.4417888,48.150363 137.790665,53.5402245 156.214352,47.847738 Z" id="Rectangle-Copy-3"></path>
            </g>
        </g>
    </g>
</svg>