<?xml version="1.0" encoding="UTF-8"?>
<svg width="156px" height="23px" viewBox="0 0 156 23" version="1.1" xmlns="http://www.w3.org/2000/svg" xmlns:xlink="http://www.w3.org/1999/xlink">
    <!-- Generator: Sketch 57.1 (83088) - https://sketch.com -->
    <title>Register</title>
    <desc>Created with Sketch.</desc>
    <g id="Page-1" stroke="none" stroke-width="1" fill="none" fill-rule="evenodd">
        <g id="iPhone-XR" transform="translate(-65.000000, -1446.000000)" fill="#60FFFD" fill-rule="nonzero">
            <path d="M65.8,1468 L65.8,1447 L72.88,1447 C76.69,1447 82.51,1447 82.51,1453.27 C82.51,1456.51 80.95,1458.61 77.5,1459.51 L82.87,1468 L65.8,1468 Z M86.32,1468 L86.32,1447 L102.37,1447 L102.37,1454.38 L93.7,1454.38 L93.7,1456.75 L100.75,1456.75 L100.75,1458.13 L93.7,1458.13 L93.7,1460.62 L102.37,1460.62 L102.37,1468 L86.32,1468 Z M117.07,1468.36 C109.96,1468.36 105.43,1464.22 105.43,1457.83 C105.43,1451.17 110.44,1446.64 117.49,1446.64 L117.49,1457.74 L125.47,1457.74 L125.47,1465.36 C123.58,1467.19 120.46,1468.36 117.07,1468.36 Z M129.28,1468 L129.28,1447 L136.78,1447 L136.78,1468 L129.28,1468 Z M140.59,1468 L140.59,1460.62 C144.55,1460.62 145.93,1459.6 148.15,1454.02 C150.07,1449.19 152.68,1447 157.63,1447 L158.65,1447 L158.65,1454.35 L158.62,1454.35 C156.28,1454.35 155.44,1456.48 154.21,1459.87 C152.17,1465.48 148.42,1468 142.54,1468 L140.59,1468 Z M161.5,1454.38 L161.5,1447 L179.89,1447 L179.89,1454.38 L174.7,1454.38 L174.7,1468 L167.2,1468 L167.2,1454.38 L161.5,1454.38 Z M183.58,1468 L183.58,1447 L199.63,1447 L199.63,1454.38 L190.96,1454.38 L190.96,1456.75 L198.01,1456.75 L198.01,1458.13 L190.96,1458.13 L190.96,1460.62 L199.63,1460.62 L199.63,1468 L183.58,1468 Z M203.95,1468 L203.95,1447 L211.03,1447 C214.84,1447 220.66,1447 220.66,1453.27 C220.66,1456.51 219.1,1458.61 215.65,1459.51 L221.02,1468 L203.95,1468 Z" id="Register"></path>
        </g>
    </g>
</svg>