<?xml version="1.0" encoding="UTF-8"?>
<svg width="351px" height="29px" viewBox="0 0 351 29" version="1.1" xmlns="http://www.w3.org/2000/svg" xmlns:xlink="http://www.w3.org/1999/xlink">
    <!-- Generator: Sketch 57.1 (83088) - https://sketch.com -->
    <title>Think.Expand.Grow.</title>
    <desc>Created with Sketch.</desc>
    <g id="Page-1" stroke="none" stroke-width="1" fill="none" fill-rule="evenodd">
        <g id="iPhone-XR" transform="translate(-30.000000, -1047.000000)" fill="#FF41F0" fill-rule="nonzero">
            <path d="M35.01,1070 L35.01,1049.99 L30,1049.99 L30,1047.5 L45,1047.5 L45,1049.99 L39.99,1049.99 L39.99,1070 L35.01,1070 Z M48.54,1070 L48.54,1047.5 L53.55,1047.5 L53.55,1055 C53.6500005,1054.16 53.9099979,1053.535 54.33,1053.125 C54.7500021,1052.715 55.3199964,1052.51 56.04,1052.51 L58.56,1052.51 C59.9200068,1052.51 61.0899951,1053 62.07,1053.98 C63.0500049,1054.96 63.54,1056.12999 63.54,1057.49 L63.54,1070 L58.56,1070 L58.56,1057.49 C58.56,1056.81 58.3150025,1056.225 57.825,1055.735 C57.3349975,1055.245 56.7400035,1055 56.04,1055 C55.3599966,1055 54.7750025,1055.245 54.285,1055.735 C53.7949975,1056.225 53.55,1056.81 53.55,1057.49 L53.55,1070 L48.54,1070 Z M69.6,1049.99 L69.6,1047.5 L74.61,1047.5 L74.61,1049.99 L69.6,1049.99 Z M69.6,1070 L69.6,1052.51 L74.61,1052.51 L74.61,1070 L69.6,1070 Z M80.64,1070 L80.64,1052.51 L85.65,1052.51 L85.65,1055 C85.7500005,1054.16 86.0099979,1053.535 86.43,1053.125 C86.8500021,1052.715 87.4199964,1052.51 88.14,1052.51 L90.66,1052.51 C92.0200068,1052.51 93.1899951,1053 94.17,1053.98 C95.1500049,1054.96 95.64,1056.12999 95.64,1057.49 L95.64,1070 L90.66,1070 L90.66,1057.49 C90.66,1056.81 90.4150025,1056.225 89.925,1055.735 C89.4349975,1055.245 88.8400035,1055 88.14,1055 C87.4599966,1055 86.8750024,1055.245 86.385,1055.735 C85.8949975,1056.225 85.65,1056.81 85.65,1057.49 L85.65,1070 L80.64,1070 Z M101.7,1070 L101.7,1047.5 L106.71,1047.5 L106.71,1058.75 L114.21,1052.51 L119.22,1052.51 L108.75,1061.24 L119.22,1070 L114.21,1070 L106.71,1063.76 L106.71,1070 L101.7,1070 Z M122.76,1070 L122.76,1064.99 L127.77,1064.99 L127.77,1070 L122.76,1070 Z M142.35,1070 L142.35,1047.5 L154.86,1047.5 L154.86,1049.99 L147.36,1049.99 L147.36,1057.49 L152.37,1057.49 L152.37,1060.01 L147.36,1060.01 L147.36,1067.51 L154.86,1067.51 L154.86,1070 L142.35,1070 Z M160.89,1070 L160.89,1066.25 C160.89,1064.76999 161.309996,1063.615 162.15,1062.785 C162.990004,1061.955 164.239992,1061.44 165.9,1061.24 C164.239992,1061.06 162.990004,1060.55 162.15,1059.71 C161.309996,1058.87 160.89,1057.72001 160.89,1056.26 L160.89,1052.51 L165.9,1052.51 L165.9,1057.49 C165.9,1058.19 166.144998,1058.785 166.635,1059.275 C167.125002,1059.765 167.709997,1060.01 168.39,1060.01 C169.090003,1060.01 169.684998,1059.765 170.175,1059.275 C170.665002,1058.785 170.91,1058.19 170.91,1057.49 L170.91,1052.51 L175.89,1052.51 L175.89,1056.26 C175.89,1057.72001 175.475004,1058.87 174.645,1059.71 C173.814996,1060.55 172.570008,1061.06 170.91,1061.24 C172.570008,1061.44 173.814996,1061.96 174.645,1062.8 C175.475004,1063.64 175.89,1064.78999 175.89,1066.25 L175.89,1070 L170.91,1070 L170.91,1064.99 C170.91,1064.31 170.665002,1063.725 170.175,1063.235 C169.684998,1062.745 169.090003,1062.5 168.39,1062.5 C167.709997,1062.5 167.125002,1062.745 166.635,1063.235 C166.144998,1063.725 165.9,1064.31 165.9,1064.99 L165.9,1070 L160.89,1070 Z M181.95,1052.51 L186.96,1052.51 L186.96,1055 C186.96,1054.16 187.169998,1053.535 187.59,1053.125 C188.010002,1052.715 188.629996,1052.51 189.45,1052.51 L191.97,1052.51 C193.330007,1052.51 194.499995,1053 195.48,1053.98 C196.460005,1054.96 196.95,1056.12999 196.95,1057.49 L196.95,1064.99 C196.95,1066.37001 196.460005,1067.55 195.48,1068.53 C194.499995,1069.51 193.330007,1070 191.97,1070 L186.96,1070 L186.96,1075.01 L181.95,1075.01 L181.95,1052.51 Z M186.96,1067.51 L189.45,1067.51 C190.150003,1067.51 190.744998,1067.265 191.235,1066.775 C191.725002,1066.285 191.97,1065.69 191.97,1064.99 L191.97,1057.49 C191.97,1056.81 191.725002,1056.225 191.235,1055.735 C190.744998,1055.245 190.150003,1055 189.45,1055 C188.769997,1055 188.185002,1055.245 187.695,1055.735 C187.204998,1056.225 186.96,1056.81 186.96,1057.49 L186.96,1067.51 Z M213.03,1060.01 L213.03,1057.49 C213.03,1056.81 212.785002,1056.225 212.295,1055.735 C211.804998,1055.245 211.210004,1055 210.51,1055 L208.02,1055 C206.539993,1055 205.710001,1055.82999 205.53,1057.49 L203.01,1057.49 C203.410002,1054.16998 205.079985,1052.51 208.02,1052.51 L213.03,1052.51 C214.390007,1052.51 215.559995,1053 216.54,1053.98 C217.520005,1054.96 218.01,1056.12999 218.01,1057.49 L218.01,1070 L213.03,1070 L213.03,1067.51 C212.829999,1069.17001 211.990007,1070 210.51,1070 L208.02,1070 C206.659993,1070 205.485005,1069.51 204.495,1068.53 C203.504995,1067.55 203.01,1066.37001 203.01,1064.99 C203.01,1063.62999 203.504995,1062.46 204.495,1061.48 C205.485005,1060.5 206.659993,1060.01 208.02,1060.01 L213.03,1060.01 Z M213.03,1062.5 L210.51,1062.5 C209.829997,1062.5 209.245002,1062.745 208.755,1063.235 C208.264998,1063.725 208.02,1064.31 208.02,1064.99 C208.02,1065.67 208.264998,1066.26 208.755,1066.76 C209.245002,1067.26 209.829997,1067.51 210.51,1067.51 C211.210004,1067.51 211.804998,1067.26 212.295,1066.76 C212.785002,1066.26 213.03,1065.67 213.03,1064.99 L213.03,1062.5 Z M224.07,1070 L224.07,1052.51 L229.08,1052.51 L229.08,1055 C229.180001,1054.16 229.439998,1053.535 229.86,1053.125 C230.280002,1052.715 230.849996,1052.51 231.57,1052.51 L234.09,1052.51 C235.450007,1052.51 236.619995,1053 237.6,1053.98 C238.580005,1054.96 239.07,1056.12999 239.07,1057.49 L239.07,1070 L234.09,1070 L234.09,1057.49 C234.09,1056.81 233.845002,1056.225 233.355,1055.735 C232.864998,1055.245 232.270004,1055 231.57,1055 C230.889997,1055 230.305002,1055.245 229.815,1055.735 C229.324998,1056.225 229.08,1056.81 229.08,1057.49 L229.08,1070 L224.07,1070 Z M260.13,1070 L255.15,1070 L255.15,1067.51 C254.949999,1069.17001 254.110007,1070 252.63,1070 L250.14,1070 C248.779993,1070 247.605005,1069.51 246.615,1068.53 C245.624995,1067.55 245.13,1066.37001 245.13,1064.99 L245.13,1057.49 C245.13,1056.12999 245.624995,1054.96 246.615,1053.98 C247.605005,1053 248.779993,1052.51 250.14,1052.51 L255.15,1052.51 L255.15,1047.5 L260.13,1047.5 L260.13,1070 Z M255.15,1055 L252.63,1055 C251.949997,1055 251.365002,1055.245 250.875,1055.735 C250.384998,1056.225 250.14,1056.81 250.14,1057.49 L250.14,1064.99 C250.14,1065.67 250.384998,1066.26 250.875,1066.76 C251.365002,1067.26 251.949997,1067.51 252.63,1067.51 C253.330004,1067.51 253.924998,1067.26 254.415,1066.76 C254.905002,1066.26 255.15,1065.67 255.15,1064.99 L255.15,1055 Z M266.19,1070 L266.19,1064.99 L271.2,1064.99 L271.2,1070 L266.19,1070 Z M293.28,1057.49 L300.78,1057.49 L300.78,1064.99 C300.78,1066.67001 300.250005,1067.925 299.19,1068.755 C298.129995,1069.585 297.000006,1070 295.8,1070 L290.79,1070 C289.429993,1070 288.255005,1069.51 287.265,1068.53 C286.274995,1067.55 285.78,1066.37001 285.78,1064.99 L285.78,1052.51 C285.78,1051.14999 286.264995,1049.975 287.235,1048.985 C288.205005,1047.995 289.389993,1047.5 290.79,1047.5 L295.8,1047.5 C298.940016,1047.5 300.599999,1049.16998 300.78,1052.51 L298.29,1052.51 C298.089999,1050.82999 297.260007,1049.99 295.8,1049.99 L293.28,1049.99 C292.599997,1049.99 292.015002,1050.235 291.525,1050.725 C291.034998,1051.215 290.79,1051.81 290.79,1052.51 L290.79,1064.99 C290.79,1065.69 291.034998,1066.285 291.525,1066.775 C292.015002,1067.265 292.599997,1067.51 293.28,1067.51 C294.880008,1067.43 295.72,1066.59001 295.8,1064.99 L295.8,1060.01 L293.28,1060.01 L293.28,1057.49 Z M311.85,1070 L306.84,1070 L306.84,1052.51 L311.85,1052.51 L311.85,1057.49 C312.050001,1055.82999 312.564996,1054.585 313.395,1053.755 C314.225004,1052.925 315.379993,1052.51 316.86,1052.51 L319.35,1052.51 L319.35,1057.49 L314.34,1057.49 C313.659997,1057.49 313.075002,1057.735 312.585,1058.225 C312.094998,1058.715 311.85,1059.31 311.85,1060.01 L311.85,1070 Z M327.9,1052.51 L332.91,1052.51 C334.270007,1052.51 335.439995,1053 336.42,1053.98 C337.400005,1054.96 337.89,1056.12999 337.89,1057.49 L337.89,1064.99 C337.89,1066.35001 337.400005,1067.525 336.42,1068.515 C335.439995,1069.505 334.270007,1070 332.91,1070 L327.9,1070 C326.539993,1070 325.365005,1069.51 324.375,1068.53 C323.384995,1067.55 322.89,1066.37001 322.89,1064.99 L322.89,1057.49 C322.89,1056.12999 323.384995,1054.96 324.375,1053.98 C325.365005,1053 326.539993,1052.51 327.9,1052.51 Z M327.9,1057.49 L327.9,1064.99 C327.9,1065.67 328.144998,1066.26 328.635,1066.76 C329.125002,1067.26 329.709997,1067.51 330.39,1067.51 C331.090004,1067.51 331.684998,1067.26 332.175,1066.76 C332.665002,1066.26 332.91,1065.67 332.91,1064.99 L332.91,1057.49 C332.91,1056.81 332.665002,1056.225 332.175,1055.735 C331.684998,1055.245 331.090004,1055 330.39,1055 C329.709997,1055 329.125002,1055.245 328.635,1055.735 C328.144998,1056.225 327.9,1056.81 327.9,1057.49 Z M343.95,1052.51 L348.96,1052.51 L348.96,1067.51 L351.45,1067.51 C352.150004,1067.51 352.744998,1067.26 353.235,1066.76 C353.725002,1066.26 353.97,1065.67 353.97,1064.99 L353.97,1052.51 L358.95,1052.51 L358.95,1067.51 L361.47,1067.51 C362.150003,1067.51 362.734998,1067.26 363.225,1066.76 C363.715002,1066.26 363.96,1065.67 363.96,1064.99 L363.96,1052.51 L368.97,1052.51 L368.97,1061.45 C368.97,1063.79001 368.135008,1065.79999 366.465,1067.48 C364.794992,1069.16001 362.780012,1070 360.42,1070 L353.97,1070 L353.97,1069.22 C353.009995,1069.74 351.830007,1070 350.43,1070 L343.95,1070 L343.95,1052.51 Z M375,1070 L375,1064.99 L380.01,1064.99 L380.01,1070 L375,1070 Z" id="Think.Expand.Grow."></path>
        </g>
    </g>
</svg>