<?xml version="1.0" encoding="UTF-8"?>
<svg width="162px" height="23px" viewBox="0 0 162 23" version="1.1" xmlns="http://www.w3.org/2000/svg" xmlns:xlink="http://www.w3.org/1999/xlink">
    <!-- Generator: Sketch 57.1 (83088) - https://sketch.com -->
    <title>schedule</title>
    <desc>Created with Sketch.</desc>
    <g id="Page-1" stroke="none" stroke-width="1" fill="none" fill-rule="evenodd">
        <g id="iPhone-XR" transform="translate(-64.000000, -1446.000000)" fill="#60FFFD" fill-rule="nonzero">
            <path d="M64.96,1468 L64.96,1460.62 C68.92,1460.62 70.3,1459.6 72.52,1454.02 C74.44,1449.19 77.05,1447 82,1447 L83.02,1447 L83.02,1454.35 L82.99,1454.35 C80.65,1454.35 79.81,1456.48 78.58,1459.87 C76.54,1465.48 72.79,1468 66.91,1468 L64.96,1468 Z M96.58,1468.36 C90.22,1468.36 85.78,1464.04 85.78,1457.53 C85.78,1451.05 90.28,1446.64 96.88,1446.64 C99.25,1446.64 101.65,1447.42 103.51,1448.83 L99.58,1455.37 C98.83,1454.74 97.9,1454.38 96.91,1454.38 C94.99,1454.38 93.61,1455.7 93.61,1457.47 C93.61,1459.36 94.87,1460.62 96.88,1460.62 C98.02,1460.62 98.98,1460.26 99.85,1459.54 L103.51,1466.14 C101.83,1467.49 99.37,1468.36 96.58,1468.36 Z M106.84,1468 L106.84,1447 L114.34,1447 L114.34,1456.51 L117.04,1456.51 L117.04,1447 L124.54,1447 L124.54,1468 L117.04,1468 L117.04,1457.89 L114.34,1457.89 L114.34,1468 L106.84,1468 Z M129.19,1468 L129.19,1447 L145.24,1447 L145.24,1454.38 L136.57,1454.38 L136.57,1456.75 L143.62,1456.75 L143.62,1458.13 L136.57,1458.13 L136.57,1460.62 L145.24,1460.62 L145.24,1468 L129.19,1468 Z M149.56,1468 L149.56,1447 L153.1,1447 C155.59,1447 165.52,1447 165.52,1457.44 C165.52,1468 156.31,1468 154.33,1468 L149.56,1468 Z M177.58,1468.33 C168.82,1468.33 168.82,1461.58 168.82,1458.01 L168.82,1447 L176.44,1447 L176.44,1460.68 L178.69,1460.68 L178.69,1447 L186.31,1447 L186.31,1458.01 C186.31,1461.58 186.31,1468.33 177.58,1468.33 Z M190.66,1468 L190.66,1447 L198.16,1447 L198.16,1460.62 L205.72,1460.62 L205.72,1468 L190.66,1468 Z M209.38,1468 L209.38,1447 L225.43,1447 L225.43,1454.38 L216.76,1454.38 L216.76,1456.75 L223.81,1456.75 L223.81,1458.13 L216.76,1458.13 L216.76,1460.62 L225.43,1460.62 L225.43,1468 L209.38,1468 Z" id="schedule"></path>
        </g>
    </g>
</svg>